# xmcd CD database file
#
# Track frame offsets:
#	150
#	26264
#	61704
#	86401
#	110434
#	132767
#	159934
#	195635
#	218114
#
# Disc length: 3210 seconds
#
# Revision: 0
# Processed by: cddbd v1.5.1PL0 Copyright (c) Steve Scherf et al.
# Submitted via: CDex 1.51
#
DISCID=670c8809
DTITLE=Brent Jensen - Rob Walker - Art of the Groove
DYEAR=2004
DGENRE=Jazz
TTITLE0=Straight From Miles
TTITLE1=It Could Happen To You
TTITLE2=Art of the Groove
TTITLE3=Evan's Pen
TTITLE4=Danza Callejera
TTITLE5=You Go To My Head
TTITLE6=Dewey's Steps
TTITLE7=Anne Rose
TTITLE8=Later
EXTD=YEAR: 2004
EXTT0=
EXTT1=
EXTT2=
EXTT3=
EXTT4=
EXTT5=
EXTT6=
EXTT7=
EXTT8=
PLAYORDER=
